<svg xmlns="http://www.w3.org/2000/svg" viewBox="0 0 322.15 393.03"><g id="Camada_2" data-name="Camada 2"><g id="Camada_1-2" data-name="Camada 1"><path d="M97,392.79c-10.91-1.38-19.42-7.31-27.1-14.59-15.45-14.64-27.31-32-37.88-50.34C14.94,298.22,5,266.21,1.19,232.29-2,203.54.88,175.54,14.45,149.54,28.57,122.51,50,104,80.13,96.82c14.72-3.5,29.34-2.27,43.82,2.32,10.37,3.28,20.23,7.86,30.59,11.12a28,28,0,0,0,18.75-.44c11.62-4.29,23.19-8.7,35.07-12.28,20.67-6.21,40.89-4.24,60.91,2.7A84.43,84.43,0,0,1,300.14,119a73.61,73.61,0,0,1,10.12,12c1.7,2.5,1.09,4.25-1.16,5.81-2.94,2-5.77,4.22-8.56,6.46-16.45,13.19-27.13,29.93-29.62,51-3,25,1.33,48.39,17.92,68.35a87.33,87.33,0,0,0,25.77,20.82c1.24.68,2.53,1.25,3.76,1.92,4,2.2,4.51,3.31,2.95,7.71a223,223,0,0,1-17.94,38.5,300.74,300.74,0,0,1-28.93,40.95,64.1,64.1,0,0,1-13.51,12.17,61.43,61.43,0,0,1-10.57,5.69C236.16,396,221,391.69,203,386.31c-13.11-3.92-10.56-4.15-17.74-6-13.78-3.59-27.29-2.42-40.62,2.13-10.32,3.53-9.14,4.19-18.69,6.83A99.64,99.64,0,0,1,97,392.79Z" fill="#fff"/><path d="M160.7,83.28c1.32-29.91,15-52.83,39.71-69.24A90.48,90.48,0,0,1,234.9.41c4.73-.84,4.9-.79,5.09,4.05.89,23.05-7.16,42.81-22.09,60-7.93,9.14-16.83,17-28.14,21.79C181,90,171.91,91.13,162.52,90.74c-1.62-.06-1.9-.74-1.84-2.1C160.76,86.86,160.7,85.07,160.7,83.28Z" fill="#fff"/></g></g></svg>