<svg xmlns="http://www.w3.org/2000/svg" viewBox="0 0 350.63 349.48"><g id="Camada_2" data-name="Camada 2"><g id="Camada_1-2" data-name="Camada 1"><path d="M209.32,349.48v-3.27c0-39.64,0-79.28-.08-118.93,0-3,.81-3.63,3.68-3.57,9.31.19,18.62,0,27.94.12,2.15,0,2.91-.45,3.26-2.8,2.09-14.27,4.41-28.5,6.76-42.73.45-2.67.31-3.92-3.06-3.88-15.08.19-30.18,0-45.26.16-2.76,0-3.25-.8-3.21-3.33.15-9.88.06-19.76.07-29.64,0-16.24,9.55-25.94,26.42-26.44,9.89-.29,19.8-.15,29.7,0,2.44,0,3.42-.28,3.38-3.14-.2-12.47-.08-24.94-.11-37.41,0-1.12.63-2.49-1.55-2.77-21.26-2.72-42.61-6.14-63.72.25-24.63,7.46-38.3,24.71-42.24,49.81-2.54,16.25-1.11,32.64-1.28,49,0,3.19-.89,3.79-3.88,3.74-11-.19-21.92,0-32.88-.12-2.21,0-3,.43-3,2.86q.18,21.88,0,43.76c0,2.58,1,2.75,3.06,2.74,11.2-.08,22.4,0,33.59-.1,2.49,0,3.1.6,3.09,3.08q-.12,60,0,120c0,2.45-.7,2.94-2.92,2.49C78.68,335.63,31.3,296.86,9.14,230.59c-28.91-86.47,12.85-179,96-216.14A164,164,0,0,1,159.4.66C216.94-3.87,265.59,14.9,304.79,57a166.21,166.21,0,0,1,43.87,92.24c6.83,49.38-4,94.49-34.53,134.17C288,317.36,253.81,339.35,212,349.23A22.41,22.41,0,0,1,209.32,349.48Z" fill="#fff"/></g></g></svg>