<svg xmlns="http://www.w3.org/2000/svg" viewBox="0 0 335.78 335.44"><g id="Camada_2" data-name="Camada 2"><g id="Camada_1-2" data-name="Camada 1"><path d="M167.46,287.51a173.4,173.4,0,0,1-40.37-4.29c-2.26-.51-3.5.51-4.91,1.75L71,329.85c-3.28,2.88-6.47,5.78-11.36,5.58-6.38-.26-12-5.33-11.5-11.7.64-8.54,2-17,3.23-25.52q3.07-21.78,6.34-43.54c.31-2-.78-2.86-2.14-3.87C32,233.45,15.4,210.94,6.61,183-7.37,138.69,1,98.2,30,62.26,55.8,30.14,90.13,11.72,130.27,3.88,173.69-4.61,215.41.7,254.8,21.11c30.72,15.92,55,38.74,69.11,70.71,19.75,44.8,14.62,87.72-13.61,127.34-23.89,33.54-57.49,53.11-97,63A178.23,178.23,0,0,1,167.46,287.51Z" fill="#fff"/><path d="M76.54,292.92c2.2-15.29,4.41-29.91,6.35-44.57.73-5.5-2.06-9.43-6.65-12.39C57,223.56,42.5,207,33.59,185.86,16.79,146.05,22.48,109.16,49.77,76c21.87-26.59,50.84-41.59,84.31-48.3,37.31-7.48,73.24-3.26,107.41,13.63,25.45,12.58,46.09,30.68,58.6,56.49,18.72,38.63,14.37,75.62-11.1,109.72-20.74,27.78-49.5,43.61-82.81,51.5-27,6.41-54,5.84-80.93-.85-5-1.25-9-.09-12.71,3.2C100.77,271.77,88.93,282.07,76.54,292.92Z" fill="#fff"/></g></g></svg>