<svg xmlns="http://www.w3.org/2000/svg" viewBox="0 0 2449.71 581.39"><g id="Camada_2" data-name="Camada 2"><g id="Camada_1-2" data-name="Camada 1"><path d="M147.7,234.47c111-38.25,129.88-137.91,115.71-229.54,0-3.3,2.84-5.66,5.67-4.72,106.27,52,225.76,165.31,225.76,335.34,0,130.35-101.07,245.6-248,245.6C116.59,587.07,6.17,486.25.24,356A236.17,236.17,0,0,1,113.69,143.32a4.19,4.19,0,0,1,6.61,3.3c1.42,17.48,6.14,61.4,25.51,87.85Z" fill="#fff"/><path d="M807.51,477.71l8-9.45,25,79.35-3.31,3.31c-18.89,17.47-47.23,26.45-83.6,26.45h-1.41c-33.06,0-59-9.45-77-26.92-18-18-27.39-44.87-27.39-78.88V255.25H584.11V167.88h63.76V62.55h98.24V167.88H824v87.37H745.63V450.32c0,9,2.37,37.78,29.76,37.78,14.17,0,27.39-5.19,32.12-10.86Zm52,90.68v-400H957.7v400ZM908.11,4.93a59,59,0,1,1-59,59.51C849.07,32.33,876,4.93,908.11,4.93Zm313.61,153.5c85,0,131.77,46.29,131.77,130.83V567.92h-98.24v-255c-1.89-45.35-23.61-66.13-69.9-66.13-41.56,0-75.1,25.51-92.1,47.23V567.92H995V168.82h98.24v42.51c28.34-27.39,73.68-52,128.47-52Zm458.61,51.48v-188h98.24V568.87h-98.24V527.3a162,162,0,0,1-116.66,50.54c-107.22,0-179-84.07-179-209.23,0-125.64,71.79-209.71,179-209.71A160.63,160.63,0,0,1,1680.33,209.91Zm0,84.55a120.91,120.91,0,0,0-92.58-47.23c-60.92,0-101.54,48.64-101.54,121.38,0,72.26,40.62,120.91,101.54,120.91,35.43,0,74.16-18.89,92.58-46.29V294.46ZM2008.11,158.9c116.18,0,197,89.74,197,217.26v26.93H1908c9.92,56.2,54.31,92.1,114.77,92.1,38.25,0,80.29-16.54,104.38-40.62l6.61-5.67L2180.5,516l-4.73,4.25a229.52,229.52,0,0,1-161,57.62c-122.8,0-209.23-86.43-209.23-209.7-3.92-111.58,83.36-205.2,194.93-209.11q4.08-.15,8.16-.13Zm-100.6,170h201.67c-5.67-60-55.26-87.37-101.07-87.37-69,0-94.94,51.95-100.6,87.85Zm535.12-170h7.08v99.19l-8.5-1.42a132.35,132.35,0,0,0-25-2.36c-31.65,0-75.57,22.2-92.1,45.81v267.8h-98.24V168.35h98.71v44.4c32.59-34,75.57-53.85,118.08-53.85Z" fill="#fff"/></g></g></svg>